<!-- icon666.com - MILLIONS vector ICONS FREE --><svg version="1.1" id="Capa_1" xmlns="http://www.w3.org/2000/svg" xmlns:xlink="http://www.w3.org/1999/xlink" x="0px" y="0px" viewBox="0 0 494.08 494.08" style="enable-background:new 0 0 494.08 494.08;" xml:space="preserve"><g><g><path d="M247.253,0C110.817-0.118,0.118,110.39,0,246.827C-0.118,383.263,110.39,493.962,246.827,494.08 c136.436,0.118,247.135-110.39,247.253-246.827c0-0.071,0-0.142,0-0.213C493.963,110.736,383.558,0.235,247.253,0z M349.44,267.093l-1.067,1.28l-1.707,1.707l-81.707,96.64c-8.142,9.779-22.669,11.107-32.448,2.965 c-1.076-0.896-2.069-1.889-2.965-2.965L147.2,268.373c-1.493,0-1.067,0-1.92-2.133c-8.177-10.564-12.605-23.548-12.587-36.907 c1.843-36.905,33.051-65.449,69.973-64c16.161,0.199,31.816,5.667,44.587,15.573c12.871-9.615,28.521-14.782,44.587-14.72 c36.923-1.449,68.131,27.095,69.973,64C361.814,243.507,357.469,256.465,349.44,267.093z"></path></g></g></svg>